<?xml version="1.0" standalone="no"?>
<!DOCTYPE svg PUBLIC "-//W3C//DTD SVG 20010904//EN"
 "http://www.w3.org/TR/2001/REC-SVG-20010904/DTD/svg10.dtd">
<svg version="1.0" xmlns="http://www.w3.org/2000/svg"
 width="300.000000pt" height="200.000000pt" viewBox="0 0 300.000000 200.000000"
 preserveAspectRatio="xMidYMid meet">
<metadata>
Created by potrace 1.10, written by Peter Selinger 2001-2011
</metadata>
<g transform="translate(0.000000,200.000000) scale(0.100000,-0.100000)"
fill="#000000" stroke="none">
<path d="M2286 1394 c-44 -45 -80 -147 -102 -293 l-6 -43 -77 7 c-63 5 -95 15
-186 58 l-110 52 -103 0 c-102 0 -102 0 -127 -30 -24 -30 -24 -30 -5 -47 25
-21 25 -28 -1 -28 -18 0 -20 -4 -14 -32 6 -27 5 -30 -11 -24 -11 4 -23 8 -27
9 -8 2 -57 -117 -57 -138 0 -5 14 15 31 45 18 30 33 57 35 59 2 2 19 -6 39
-17 39 -24 41 -21 21 36 l-15 40 40 16 c22 9 68 16 102 16 53 0 76 -6 143 -38
109 -53 168 -71 245 -74 l67 -3 11 -96 c6 -52 20 -126 33 -165 12 -38 22 -73
22 -79 1 -5 28 -28 61 -50 l60 -40 123 -5 c67 -3 127 -3 132 -2 18 6 11 22
-15 34 -29 13 -33 28 -8 28 24 0 96 80 112 125 8 22 23 52 34 66 23 32 58 154
50 174 -4 12 7 15 57 15 38 0 59 -4 55 -10 -3 -5 -21 -10 -38 -10 -18 0 -39
-5 -47 -10 -11 -7 2 -10 43 -10 53 0 58 2 67 26 6 14 10 37 10 52 0 47 -13 56
-79 53 -59 -2 -61 -1 -66 26 -4 15 -17 57 -30 93 -13 36 -27 76 -31 90 -11 45
-54 110 -82 124 -17 9 -82 16 -177 21 l-150 7 -29 -28z m171 -13 c33 33 82
-157 92 -351 l7 -135 8 79 c15 143 0 260 -50 390 -8 20 -9 20 45 -2 10 -4 12
-1 7 9 -4 8 2 3 13 -10 39 -44 69 -203 72 -381 l2 -75 9 65 c17 122 2 246 -47
385 -13 39 61 -54 93 -116 26 -51 32 -73 32 -128 0 -84 8 -114 28 -106 11 4
12 2 4 -8 -6 -7 -14 -36 -18 -66 -4 -29 -10 -48 -14 -41 -4 6 -12 -8 -19 -32
-38 -126 -139 -268 -192 -268 -11 0 -17 -4 -14 -10 6 -10 -10 -15 -30 -10 -5
1 -35 2 -65 2 -40 0 -48 1 -30 7 20 6 13 9 -38 15 l-63 8 -25 50 c-15 30 -22
54 -16 60 5 5 2 40 -9 88 -16 75 -16 80 0 94 10 9 32 16 49 16 29 0 31 2 42
57 19 89 0 162 -35 133 -9 -7 -15 -8 -15 -2 0 6 -9 14 -20 17 -24 8 -25 32 -5
99 23 77 53 119 81 113 20 -3 22 -2 13 9 -16 19 -38 17 -62 -3 -19 -17 -20
-17 -9 2 17 33 59 52 82 37 25 -15 33 -15 24 0 -4 7 -3 8 4 4 7 -4 12 -3 12 3
0 7 8 7 24 1 14 -5 27 -5 33 1z m-542 -276 c98 -49 103 -50 210 -55 61 -3 116
-9 123 -13 28 -19 -4 -25 -105 -20 -112 6 -189 28 -251 72 -54 38 -143 55
-227 45 -41 -5 -75 -6 -75 -2 0 19 50 28 135 25 86 -3 96 -5 190 -52z m355
-24 c6 -12 17 -17 28 -14 13 3 21 -2 24 -14 7 -27 -1 -41 -21 -36 -15 4 -19
-3 -24 -38 -7 -50 -32 -83 -47 -59 -16 26 -12 53 7 46 20 -8 33 10 33 46 0 41
-9 56 -31 51 -21 -6 -22 -3 -13 21 8 22 31 20 44 -3z m647 -48 c3 -7 -17 -12
-61 -15 -58 -3 -66 -1 -66 15 0 16 8 18 62 15 35 -2 63 -8 65 -15z m-604 -94
c-4 -4 -15 -4 -22 1 -12 7 -11 13 5 37 l19 28 3 -29 c2 -16 0 -32 -5 -37z"/>
<path d="M2399 1356 c-6 -6 15 -120 32 -174 6 -18 14 -63 19 -100 l7 -67 2 75
c1 101 -40 286 -60 266z"/>
<path d="M2351 909 c-1 -9 -10 -28 -22 -43 -16 -20 -17 -26 -6 -26 17 0 42 53
34 72 -4 9 -6 8 -6 -3z"/>
<path d="M2434 835 c-6 -33 -23 -90 -37 -125 -14 -36 -20 -56 -12 -46 22 30
67 172 63 203 -2 20 -6 11 -14 -32z"/>
<path d="M2622 792 c-7 -26 -24 -72 -38 -101 -14 -31 -18 -49 -10 -42 19 16
52 97 61 149 9 56 2 53 -13 -6z"/>
<path d="M2521 768 c-7 -24 -21 -60 -31 -80 -10 -21 -15 -38 -10 -38 9 0 48
89 56 130 9 44 -1 36 -15 -12z"/>
<path d="M460 1390 c-41 -3 -85 -11 -97 -18 -28 -15 -58 -66 -73 -122 -7 -25
-20 -56 -30 -70 -21 -31 -40 -85 -40 -116 0 -23 -4 -24 -63 -24 -36 0 -68 -5
-75 -12 -15 -15 -16 -57 -2 -92 8 -23 15 -26 59 -26 27 0 53 5 56 10 4 6 -11
10 -37 10 -24 0 -50 5 -58 10 -11 7 2 10 43 10 31 0 60 1 64 3 4 1 12 -28 19
-65 13 -69 25 -100 53 -132 9 -10 30 -46 46 -80 21 -42 42 -69 68 -85 21 -14
34 -28 29 -33 -4 -4 -31 -8 -60 -9 -64 -3 -65 -21 -1 -31 83 -12 199 2 266 32
54 25 64 34 83 77 31 70 49 147 57 241 l6 82 76 0 c98 0 134 10 258 72 131 65
185 72 269 34 53 -24 59 -25 81 -11 28 19 29 27 3 50 -11 10 -20 13 -20 8 0
-6 -19 -1 -42 11 -32 15 -62 21 -113 21 -72 0 -86 -5 -259 -96 -50 -26 -128
-39 -243 -39 -84 0 -111 8 -83 25 6 3 66 6 135 6 69 0 127 4 130 9 3 4 16 11
30 14 14 4 47 20 74 36 111 69 220 86 321 50 80 -28 98 -27 92 8 -5 27 -5 27
16 8 21 -19 22 -19 42 29 35 81 35 105 0 46 l-33 -55 -17 22 c-27 33 -33 27
-26 -23 4 -25 6 -45 4 -45 -2 0 -26 9 -53 19 -122 46 -211 36 -360 -41 -97
-50 -103 -52 -197 -56 l-98 -4 0 33 c0 55 -39 200 -65 245 -44 75 -62 80 -235
64z m141 -37 c20 5 79 -36 79 -55 0 -5 -7 -2 -16 6 -20 20 -58 21 -74 1 -8 -9
-9 -15 -2 -15 6 0 14 5 17 10 20 32 84 -65 100 -154 6 -32 5 -36 -14 -36 -12
0 -21 -6 -21 -15 0 -17 -12 -19 -26 -5 -21 21 -37 -18 -37 -89 0 -81 12 -106
49 -106 46 0 56 -34 33 -114 -24 -82 -23 -96 1 -50 10 19 26 73 36 120 21 105
28 115 19 24 -14 -139 -82 -295 -128 -294 -40 0 -117 -13 -123 -22 -7 -12 -88
45 -112 79 -10 15 -27 49 -37 77 -10 27 -29 60 -42 73 -56 56 -55 322 1 411
15 22 23 41 20 41 -4 0 0 7 7 17 8 9 12 17 9 17 -10 2 26 42 58 64 38 27 39
24 12 -28 -43 -85 -62 -246 -41 -355 6 -33 9 -22 15 70 4 61 14 143 22 184 14
78 56 178 62 150 2 -10 12 -19 23 -22 16 -4 19 -11 15 -29 -5 -17 -3 -16 10 7
9 17 26 38 38 47 18 15 21 15 24 2 3 -10 11 -14 23 -11z m-354 -323 c-1 -38
-5 -70 -9 -70 -5 0 -8 15 -8 33 0 34 11 107 16 107 1 0 2 -31 1 -70z m467 44
c10 -27 7 -36 -14 -29 -18 6 -20 2 -20 -34 0 -55 7 -70 32 -63 18 4 19 2 13
-19 -4 -13 -9 -26 -12 -29 -9 -10 -38 19 -41 41 -7 60 -12 70 -32 64 -17 -5
-20 -2 -20 24 0 26 4 31 25 31 14 0 28 7 31 15 8 20 30 19 38 -1z m-496 -61
c-3 -15 -13 -17 -68 -15 -36 2 -67 6 -70 9 -12 11 30 23 83 23 50 0 58 -2 55
-17z m442 -80 c0 -19 -27 -16 -34 3 -3 9 -6 25 -6 37 0 21 1 21 20 -3 11 -14
20 -31 20 -37z"/>
<path d="M527 1268 c-18 -38 -42 -180 -34 -199 3 -8 6 4 6 26 1 31 4 37 12 25
8 -11 9 -6 7 23 -2 20 -1 37 2 37 4 0 7 6 7 13 0 6 5 32 11 57 13 55 9 61 -11
18z"/>
<path d="M581 907 c-2 -30 27 -87 43 -87 14 0 13 3 -2 20 -9 11 -22 35 -29 53
-6 18 -12 24 -12 14z"/>
<path d="M501 803 c11 -57 29 -116 35 -110 5 4 -30 144 -38 152 -3 3 -2 -16 3
-42z"/>
<path d="M405 740 c3 -25 10 -49 16 -54 13 -14 11 1 -6 54 l-15 45 5 -45z"/>
</g>
</svg>
